<?xml version="1.0" standalone="no"?>
<!DOCTYPE svg PUBLIC "-//W3C//DTD SVG 20010904//EN"
 "http://www.w3.org/TR/2001/REC-SVG-20010904/DTD/svg10.dtd">
<svg version="1.0" xmlns="http://www.w3.org/2000/svg"
 width="1408.000000pt" height="1604.000000pt" viewBox="0 0 1408.000000 1604.000000"
 preserveAspectRatio="xMidYMid meet">

<g transform="translate(0.000000,1604.000000) scale(0.100000,-0.100000)"
fill="#000000" stroke="none">
<path d="M6310 15929 c-263 -32 -655 -122 -940 -214 -682 -221 -1272 -552
-1810 -1014 -140 -121 -435 -420 -549 -556 -542 -651 -905 -1395 -1090 -2235
-102 -465 -125 -1006 -65 -1580 90 -872 342 -1571 829 -2300 205 -306 398
-542 655 -800 186 -185 360 -333 612 -517 104 -75 211 -157 240 -183 l52 -47
-49 -36 c-28 -20 -171 -98 -318 -173 -401 -205 -680 -377 -1002 -619 -1104
-828 -1995 -1999 -2439 -3203 -179 -487 -339 -1172 -412 -1762 -9 -80 -18
-249 -21 -412 l-5 -278 626 0 626 0 0 123 c0 354 113 1062 246 1542 71 255
202 575 390 945 315 622 583 999 1029 1445 564 564 1255 1024 1970 1310 337
135 833 276 1100 314 297 42 826 58 1420 42 540 -15 690 -36 1109 -156 452
-130 695 -221 1036 -392 586 -292 1067 -645 1541 -1130 438 -449 804 -967
1074 -1518 225 -459 359 -862 464 -1398 82 -416 111 -655 111 -929 l0 -198
631 0 632 0 -6 268 c-16 742 -222 1700 -514 2392 -227 536 -611 1213 -900
1585 -231 297 -753 829 -1138 1160 -120 103 -433 337 -625 467 -228 155 -348
223 -721 408 -363 180 -469 238 -469 255 0 15 52 56 182 143 194 130 482 390
769 694 459 486 643 746 890 1253 263 541 429 1118 494 1725 23 207 31 673 16
882 -32 431 -111 836 -241 1228 -80 242 -136 382 -250 617 -660 1362 -1902
2365 -3387 2737 -232 58 -336 75 -647 102 -202 18 -1032 28 -1146 13z m1060
-1250 c625 -46 1347 -344 1900 -784 717 -571 1232 -1406 1409 -2283 46 -229
56 -352 56 -712 -1 -538 -42 -843 -164 -1208 -199 -595 -506 -1088 -966 -1547
-623 -625 -1312 -971 -2160 -1086 -196 -27 -667 -37 -893 -19 -397 30 -779
121 -1112 262 -495 211 -1007 569 -1357 949 -191 208 -387 477 -522 716 -531
940 -646 2083 -311 3093 146 441 364 838 673 1223 135 168 383 423 522 538
437 360 1010 647 1571 787 206 52 342 73 539 82 185 9 619 3 815 -11z"/>
</g>
</svg>
